<svg version="1.1" xmlns="http://www.w3.org/2000/svg" xmlns:xlink="http://www.w3.org/1999/xlink" x="0px" y="0px"
	 width="32px" height="32px" viewBox="0 0 32 32" style="enable-background:new 0 0 32 32;" xml:space="preserve">
		<path d="M30.794,3.048C27.682-0.232,16.67,16.604,16.67,16.604S27.615,4.755,28.317,5.057c0.703,0.301,0.536,4.652-0.903,7.665
			c-1.439,3.011-10.744,5.054-10.744,5.054s8.669,1.773,11.146,0.637C30.293,17.272,33.908,6.329,30.794,3.048z"/>
		<path d="M16.67,18.645c0,0,5.222,3.08,7.33,4.954c2.108,1.875,2.78,5.224-0.067,4.186c-2.506-0.914-6.534-6.799-7.466-8.2
			c0.017-0.25,0.028-0.484,0.033-0.694c0.037-1.76-0.244-3.715-0.294-4.14c0.51-0.125,0.89-0.582,0.89-1.13
			c0-0.564-0.399-1.034-0.93-1.144c0.322-1.46,1.09-3.131,1.559-3.398c0.205-0.117,0.388-0.147,0.548-0.091
			c0.285,0.102,0.457,0.474,0.515,0.596c0.032,0.071,0.036,0.14,0.009,0.211c-0.064,0.172-0.273,0.305-0.434,0.366
			c-0.246,0.096-0.316,0.072-0.437-0.147c-0.031-0.056-0.034-0.106-0.01-0.16c0.054-0.119,0.212-0.202,0.308-0.218L18.17,9.409
			c-0.164,0.027-0.382,0.155-0.463,0.338c-0.054,0.116-0.045,0.243,0.021,0.363c0.207,0.375,0.435,0.379,0.733,0.263
			c0.209-0.081,0.464-0.251,0.551-0.486c0.047-0.126,0.041-0.26-0.018-0.386c-0.067-0.146-0.273-0.591-0.658-0.728
			c-0.226-0.08-0.473-0.045-0.734,0.104c-0.523,0.3-1.346,2.036-1.671,3.574c-0.026,0-0.05,0.006-0.075,0.008
			c-0.093-1.479-0.442-3.237-1.016-3.564c-0.26-0.148-0.5-0.187-0.712-0.113c-0.325,0.113-0.494,0.448-0.592,0.691
			c-0.029,0.072-0.041,0.146-0.034,0.221c0.004,0.051,0.018,0.102,0.039,0.15c0.097,0.229,0.352,0.396,0.558,0.479
			c0.295,0.116,0.513,0.116,0.69-0.242c0.057-0.115,0.057-0.236,0-0.35c-0.089-0.177-0.306-0.304-0.465-0.333l-0.04,0.216
			c0.092,0.017,0.251,0.101,0.309,0.215c0.026,0.053,0.026,0.102,0,0.154c-0.103,0.211-0.169,0.232-0.413,0.136
			c-0.157-0.063-0.366-0.194-0.437-0.36c-0.03-0.069-0.031-0.136-0.003-0.203c0.047-0.116,0.192-0.473,0.46-0.566
			c0.15-0.052,0.329-0.02,0.533,0.097c0.464,0.265,0.81,1.959,0.904,3.409c-0.5,0.131-0.872,0.582-0.872,1.125
			c0,0.518,0.341,0.953,0.809,1.104c-0.046,0.2-0.201,1.931-0.282,3.256c-0.648-0.146-9.317-2.146-10.702-5.044
			c-1.442-3.013-1.61-7.364-0.907-7.666C4.385,4.969,15.33,16.818,15.33,16.818S4.318-0.018,1.206,3.263
			c-3.113,3.281,0.501,14.226,2.978,15.364c2.38,1.093,10.472-0.501,11.103-0.628c-0.02,0.323-0.034,0.619-0.042,0.864
			c-0.98,0.026-10.722,0.394-11.294,4.08c-0.199,1.341-1.406,6.159,2.443,6.428c3.221,0.225,7.589-6.839,8.929-9.15
			c0.185,1.521,0.605,3.93,0.605,3.93s0.408-2.669,0.536-4.518c1.003,1.772,5.72,9.762,9.143,9.523
			c3.85-0.269,2.644-5.089,2.443-6.428C27.448,18.847,16.67,18.645,16.67,18.645z M8.067,27.999C5.219,29.037,5.891,25.688,8,23.814
			c1.951-1.733,6.563-4.498,7.243-4.901c-0.003,0.12-0.006,0.23-0.005,0.319c0.001,0.199,0.03,0.519,0.074,0.896
			C14.081,21.949,10.409,27.145,8.067,27.999z"/>
</svg>